Coordinates
version=1
nRows=9
nColumns=63
inDegrees=yes

Units are S.I. units (second, meters, Newtons, ...)
If the header above contains a line with 'inDegrees', this indicates whether rotational values are in degrees (yes) or radians (no).

endheader
time	pelvis_tilt	pelvis_list	pelvis_rotation	pelvis_tx	pelvis_ty	pelvis_tz	hip_flexion_r	hip_adduction_r	hip_rotation_r	knee_angle_r	knee_angle_r_beta	ankle_angle_r	subtalar_angle_r	mtp_angle_r	hip_flexion_l	hip_adduction_l	hip_rotation_l	knee_angle_l	knee_angle_l_beta	ankle_angle_l	subtalar_angle_l	mtp_angle_l	L5_S1_Flex_Ext	L5_S1_Lat_Bending	L5_S1_axial_rotation	L4_L5_Flex_Ext	L4_L5_Lat_Bending	L4_L5_axial_rotation	L3_L4_Flex_Ext	L3_L4_Lat_Bending	L3_L4_axial_rotation	L2_L3_Flex_Ext	L2_L3_Lat_Bending	L2_L3_axial_rotation	L1_L2_Flex_Ext	L1_L2_Lat_Bending	L1_L2_axial_rotation	L1_T12_Flex_Ext	L1_T12_Lat_Bending	L1_T12_axial_rotation	Abs_r3	Abs_r2	Abs_r1	Abs_t1	Abs_t2	neck_flexion	neck_bending	neck_rotation	arm_flex_r	arm_add_r	arm_rot_r	elbow_flex_r	pro_sup_r	wrist_flex_r	wrist_dev_r	arm_flex_l	arm_add_l	arm_rot_l	elbow_flex_l	pro_sup_l	wrist_flex_l	wrist_dev_l
      1.45762712	      2.45953627	     -3.04769019	     85.58269056	      0.12299290	      0.47755847	      0.89554737	      0.51185678	      2.06733554	     23.12695342	      0.77186184	      0.01347153	     18.97163859	    -14.04154986	      0.00000000	     -0.29216774	     -2.30202262	    -11.26444594	      0.68418459	      0.01194127	     27.40243248	      0.21566902	      0.00000000	      0.07942142	     -0.22449221	      3.16196361	      0.14749353	     -0.29857464	      3.35958634	      0.13048146	     -0.54583035	      3.35958634	      0.09077075	     -0.54583035	      2.76671816	      0.07375073	     -0.45778451	      2.56909543	      0.04538140	     -0.34773843	      2.37147271	      0.56729929	     -2.53950075	     17.58589301	      0.00000000	      0.00000000	     28.01374584	     -2.83824291	    -15.62908325	     16.01075756	     -5.79850920	     74.20622570	     40.93488524	      4.82205262	     -2.24595685	      4.38372358	     25.43480807	     -2.16049538	     85.77552735	     37.55723249	     48.06219905	     -0.67499304	      4.03994571
      1.47457627	      2.48737692	     -3.06208143	     85.63405700	      0.12292076	      0.47754942	      0.89541786	      0.50074905	      2.07290677	     23.22667877	      0.76133135	      0.01328774	     18.89282362	    -14.10366200	      0.00000000	     -0.30408115	     -2.32337094	    -11.37397907	      0.69732654	      0.01217064	     27.30374732	      0.10058757	      0.00000000	      0.08702008	     -0.22027986	      3.14269351	      0.16160499	     -0.29297221	      3.33911185	      0.14296529	     -0.53558845	      3.33911185	      0.09945525	     -0.53558845	      2.74985682	      0.08080685	     -0.44919469	      2.55343847	      0.04972327	     -0.34121350	      2.35702013	      0.62157573	     -2.49184984	     17.47871847	      0.00000000	      0.00000000	     28.01752359	     -2.52295913	    -15.49069622	     16.02609123	     -5.82224256	     74.28134123	     40.94645149	      4.97758170	     -2.16853424	      4.36401830	     25.35214128	     -2.15596265	     85.45728747	     37.55861942	     48.92823753	     -0.88574847	      3.69309997
      1.49152542	      2.50370397	     -3.06121176	     85.70688212	      0.12281695	      0.47758100	      0.89541664	      0.48867657	      2.07400703	     22.59877797	      0.77392163	      0.01350748	     19.15678903	    -13.18600491	      0.00000000	     -0.31526554	     -2.33768189	    -11.75004442	      0.72465162	      0.01264756	     27.28228617	      0.40525192	      0.00000000	      0.08724994	     -0.21842992	      3.14020931	      0.16203187	     -0.29051179	      3.33647239	      0.14334293	     -0.53109050	      3.33647239	      0.09971796	     -0.53109050	      2.74768315	      0.08102030	     -0.44542229	      2.55142007	      0.04985462	     -0.33834794	      2.35515698	      0.62321762	     -2.47092291	     17.46490214	      0.00000000	      0.00000000	     28.02793759	     -2.37836228	    -15.68932819	     15.95386003	     -5.89865063	     73.81441122	     41.02171991	      5.05382571	     -2.12169150	      4.79087618	     25.38257327	     -2.05746682	     85.40405473	     37.40106623	     49.89667505	     -0.86202891	      3.27545656
      1.50847458	      2.47918092	     -3.07859694	     85.57893703	      0.12298570	      0.47765083	      0.89550992	      0.51109457	      2.04535721	     23.02779400	      0.77751561	      0.01357021	     19.03580583	    -13.57020254	      0.00000000	     -0.32776717	     -2.30497595	    -11.85067140	      0.72710290	      0.01269034	     27.16235135	      0.12014934	      0.00000000	      0.08859175	     -0.21793120	      3.13728702	      0.16452373	     -0.28984850	      3.33336746	      0.14554738	     -0.52987793	      3.33336746	      0.10125151	     -0.52987793	      2.74512614	      0.08226630	     -0.44440531	      2.54904570	      0.05062132	     -0.33757543	      2.35296526	      0.63280199	     -2.46528136	     17.44864922	      0.00000000	      0.00000000	     28.05561745	     -2.15094826	    -15.46203805	     16.25744744	     -5.91541589	     74.46482851	     40.98270311	      5.47957624	     -2.30829917	      4.48367119	     25.26111508	     -2.13340985	     84.83609355	     37.52629019	     50.58132455	     -1.10932125	      3.38288910
      1.52542373	      2.45549270	     -3.11911985	     85.66510942	      0.12286284	      0.47774814	      0.89561055	      0.55445952	      2.02728723	     22.85277057	      0.79328319	      0.01384540	     19.04778909	    -13.46472618	      0.00000000	     -0.26846253	     -2.28423739	    -12.02790136	      0.74719527	      0.01304102	     27.15062336	      0.40729593	      0.00000000	      0.08740020	     -0.21960925	      3.11279180	      0.16231091	     -0.29208030	      3.30734129	      0.14358979	     -0.53395792	      3.30734129	      0.09988969	     -0.53395792	      2.72369283	      0.08115982	     -0.44782718	      2.52914334	      0.04994047	     -0.34017472	      2.33459385	      0.62429087	     -2.48426372	     17.31241416	      0.00000000	      0.00000000	     28.07866437	     -2.21829413	    -15.65435847	     16.39649014	     -5.93911813	     74.54521847	     40.92738938	      5.99776382	     -2.23752552	      4.48987230	     25.25285802	     -2.13151434	     84.62195699	     37.49113876	     51.52236046	     -1.20647635	      3.09209026
      1.54237288	      2.45477567	     -3.18285718	     85.89232246	      0.12257506	      0.47784325	      0.89560307	      0.60337571	      2.03416743	     22.13901439	      0.80362587	      0.01402592	     19.19459370	    -12.85340030	      0.00000000	     -0.16341258	     -2.28597427	    -11.68716831	      0.74986381	      0.01308759	     27.10128923	      0.33412420	      0.00000000	      0.08695967	     -0.22115075	      3.09268013	      0.16149281	     -0.29413050	      3.28597264	      0.14286605	     -0.53770593	      3.28597264	      0.09938621	     -0.53770593	      2.70609511	      0.08075075	     -0.45097061	      2.51280261	      0.04968876	     -0.34256251	      2.31951010	      0.62114425	     -2.50170151	     17.20055908	      0.00000000	      0.00000000	     28.09535903	     -2.60365266	    -16.19161912	     16.28053912	     -6.01229373	     73.88432840	     40.91499780	      7.04722586	     -1.99711567	      4.80906017	     25.32022336	     -2.03805952	     84.73414909	     37.34091945	     52.20907962	     -1.10474861	      2.63406249
      1.55932203	      2.34825113	     -3.20598715	     85.95459102	      0.12258820	      0.47796866	      0.89557498	      0.61575948	      1.94605418	     22.46201682	      0.81585024	      0.01423927	     19.03236802	    -13.49678971	      0.00000000	     -0.11384140	     -2.17937036	    -11.51264333	      0.73839970	      0.01288751	     27.07908049	      0.35995768	      0.00000000	      0.07954973	     -0.23332130	      3.06264612	      0.14773181	     -0.31031733	      3.25406151	      0.13069226	     -0.56729741	      3.25406151	      0.09091739	     -0.56729741	      2.67981536	      0.07386988	     -0.47578880	      2.48839997	      0.04545472	     -0.36141470	      2.29698459	      0.56821580	     -2.63937722	     17.03351894	      0.00000000	      0.00000000	     28.10369939	     -2.68970392	    -16.31297384	     16.43661516	     -5.93421705	     74.07840266	     40.88066437	      6.96918785	     -2.26787137	      4.76146117	     25.24316963	     -2.21703612	     84.34256652	     37.56801693	     52.35644770	     -1.16737846	      2.77649792
      1.57627119	      2.26361049	     -3.21421970	     85.95684394	      0.12261376	      0.47808775	      0.89554364	      0.61719599	      1.87973234	     22.37132023	      0.84137215	      0.01468471	     19.02652431	    -13.53171174	      0.00000000	     -0.08326244	     -2.09319832	    -11.47360687	      0.72601601	      0.01267137	     27.12724862	      0.59820930	      0.00000000	      0.07025208	     -0.24171399	      3.05244163	      0.13046514	     -0.32147961	      3.24321923	      0.11541715	     -0.58770340	      3.24321923	      0.08029110	     -0.58770340	      2.67088643	      0.06523608	     -0.49290317	      2.48010882	      0.04014204	     -0.37441497	      2.28933122	      0.50180360	     -2.73431701	     16.97676462	      0.00000000	      0.00000000	     28.11282561	     -2.90664210	    -16.53571255	     16.55063135	     -5.89870054	     74.26101200	     40.83930237	      7.35404563	     -2.38946349	      4.57008227	     25.16532287	     -2.35000362	     83.98223655	     37.77849465	     52.53307874	     -1.17440616	      2.97949552
      1.59322034	      2.18485135	     -3.26557473	     86.03677734	      0.12254554	      0.47810747	      0.89552939	      0.66685810	      1.82679112	     21.93698176	      0.87215317	      0.01522194	     19.12877668	    -13.24132869	      0.00000000	      0.00434603	     -2.01647201	    -11.17906828	      0.71850788	      0.01254033	     27.13426128	      0.59897078	      0.00000000	      0.06871128	     -0.25178779	      3.06139142	      0.12760372	     -0.33487777	      3.25272839	      0.11288576	     -0.61219684	      3.25272839	      0.07853012	     -0.61219684	      2.67871750	      0.06380530	     -0.51344567	      2.48738053	      0.03926163	     -0.39001929	      2.29604357	      0.49079781	     -2.84827388	     17.02654068	      0.00000000	      0.00000000	     28.11157016	     -3.23519426	    -17.10187479	     16.32616617	     -5.87547239	     73.47149846	     40.78388257	      8.07161845	     -2.13471618	      4.85756194	     25.24223163	     -2.33143095	     84.14110708	     37.71505180	     52.88917410	     -0.82816027	      2.67731432
